<mxfile host="app.diagrams.net" modified="2024-06-24T02:29:44.946Z" agent="Mozilla/5.0 (Windows NT 10.0; Win64; x64) AppleWebKit/537.36 (KHTML, like Gecko) Chrome/126.0.0.0 Safari/537.36" version="24.6.2" etag="IVhgZQWEcSMy4NUT9uiW" type="github">
  <diagram name="ページ1" id="s7fcQT7b6LrWYHpilDdE">
    <mxGraphModel>
      <root>
        <mxCell id="0" />
        <mxCell id="1" parent="0" />
      </root>
    </mxGraphModel>
  </diagram>
</mxfile>
